<?xml version="1.0" encoding="UTF-8"?>
<svg width="24px" height="24px" viewBox="0 0 24 24" version="1.1" xmlns="http://www.w3.org/2000/svg" xmlns:xlink="http://www.w3.org/1999/xlink">
    <title>位置图标</title>
    <g id="位置" stroke="none" stroke-width="1" fill="none" fill-rule="evenodd">
        <path d="M12,2 C16.418,2 20,5.582 20,10 C20,15.654 13.942,21.41 12.571,22.619 C12.251,22.9 11.749,22.9 11.429,22.619 C10.058,21.41 4,15.654 4,10 C4,5.582 7.582,2 12,2 Z M12,4 C8.686,4 6,6.686 6,10 C6,13.597 9.945,18.054 12,19.925 C14.055,18.054 18,13.597 18,10 C18,6.686 15.314,4 12,4 Z M12,6 C14.209,6 16,7.791 16,10 C16,12.209 14.209,14 12,14 C9.791,14 8,12.209 8,10 C8,7.791 9.791,6 12,6 Z M12,8 C10.895,8 10,8.895 10,10 C10,11.105 10.895,12 12,12 C13.105,12 14,11.105 14,10 C14,8.895 13.105,8 12,8 Z" id="形状" fill="#007AFF"></path>
    </g>
</svg>
